<?xml version="1.0" standalone="no"?>
<!DOCTYPE svg PUBLIC "-//W3C//DTD SVG 20010904//EN"
 "http://www.w3.org/TR/2001/REC-SVG-20010904/DTD/svg10.dtd">
<svg version="1.0" xmlns="http://www.w3.org/2000/svg"
 width="225.000000pt" height="225.000000pt" viewBox="0 0 225.000000 225.000000"
 preserveAspectRatio="xMidYMid meet">

<g transform="translate(0.000000,225.000000) scale(0.100000,-0.100000)"
fill="#000000" stroke="none">
<path d="M603 2049 c-85 -16 -158 -72 -199 -152 -26 -49 -30 -154 -9 -218 20
-59 96 -144 139 -155 l26 -6 0 -399 c0 -312 -3 -399 -12 -399 -34 -1 -107 -71
-137 -131 -95 -190 37 -404 249 -403 159 1 274 118 274 279 0 103 -46 182
-136 240 -34 21 -34 26 -2 65 53 62 63 65 349 70 l261 5 66 33 c85 42 159 121
189 201 18 51 26 61 60 77 46 20 89 66 121 127 33 64 32 175 -4 243 -107 205
-394 203 -495 -3 -61 -126 -13 -297 101 -358 20 -11 36 -26 36 -33 0 -8 -17
-31 -37 -52 -53 -52 -100 -60 -363 -60 -196 0 -226 -2 -272 -20 -29 -11 -54
-20 -55 -20 -2 0 -3 119 -3 264 l0 264 43 25 c126 75 175 222 118 354 -25 58
-91 124 -143 146 -45 19 -115 26 -165 16z m118 -208 c73 -73 -6 -190 -102
-151 -30 13 -59 54 -59 85 0 28 30 76 53 85 43 17 78 11 108 -19z m940 -378
c35 -36 32 -97 -4 -129 -42 -36 -98 -33 -131 7 -33 39 -33 79 -1 118 39 46 96
48 136 4z m-961 -918 c59 -30 68 -98 21 -146 -76 -76 -197 12 -146 106 28 53
73 67 125 40z"/>
</g>
</svg>
