<?xml version="1.0" standalone="no"?>
<!DOCTYPE svg PUBLIC "-//W3C//DTD SVG 20010904//EN"
 "http://www.w3.org/TR/2001/REC-SVG-20010904/DTD/svg10.dtd">
<svg version="1.0" xmlns="http://www.w3.org/2000/svg"
 width="225.000000pt" height="225.000000pt" viewBox="0 0 225.000000 225.000000"
 preserveAspectRatio="xMidYMid meet">

<g transform="translate(0.000000,225.000000) scale(0.100000,-0.100000)"
fill="#000000" stroke="none">
<path d="M1075 2181 c-16 -4 -43 -15 -60 -24 -43 -23 -910 -895 -931 -937 -23
-47 -23 -143 0 -190 25 -49 891 -916 941 -942 55 -29 145 -29 200 0 50 26 916
893 941 942 25 50 23 144 -4 195 -25 47 -892 916 -937 938 -39 19 -111 28
-150 18z m522 -584 c385 -385 443 -446 443 -472 0 -26 -58 -87 -443 -472 -385
-385 -446 -443 -472 -443 -26 0 -87 58 -472 443 -384 383 -443 446 -443 472 0
25 43 73 307 337 l308 308 49 -49 c47 -47 48 -50 37 -81 -26 -77 -5 -157 61
-222 26 -27 54 -48 63 -48 13 0 15 -31 15 -245 0 -214 -2 -245 -15 -245 -9 0
-37 -21 -63 -47 -95 -96 -96 -219 -2 -314 95 -95 242 -88 328 16 75 92 68 210
-20 298 -26 26 -54 47 -63 47 -13 0 -15 31 -15 245 0 192 3 245 13 245 7 0 46
-33 86 -74 72 -73 73 -75 62 -107 -36 -103 22 -222 131 -269 119 -51 263 19
298 146 46 165 -121 328 -280 273 -32 -12 -33 -11 -107 63 l-75 76 12 37 c52
159 -121 329 -280 274 -31 -11 -34 -10 -81 38 l-50 49 84 82 c66 64 91 82 113
82 25 0 94 -66 471 -443z m-418 27 c12 -15 21 -37 21 -49 0 -12 -9 -34 -21
-49 -42 -53 -129 -18 -129 52 0 66 89 97 129 46z m450 -450 c28 -35 26 -69 -4
-99 -68 -69 -170 31 -103 102 30 33 80 31 107 -3z m-450 -450 c28 -35 26 -69
-4 -99 -68 -69 -170 31 -103 102 30 33 80 31 107 -3z"/>
</g>
</svg>
