<?xml version="1.0" standalone="no"?>
<!DOCTYPE svg PUBLIC "-//W3C//DTD SVG 20010904//EN"
 "http://www.w3.org/TR/2001/REC-SVG-20010904/DTD/svg10.dtd">
<svg version="1.0" xmlns="http://www.w3.org/2000/svg"
 width="225.000000pt" height="225.000000pt" viewBox="0 0 225.000000 225.000000"
 preserveAspectRatio="xMidYMid meet">

<g transform="translate(0.000000,225.000000) scale(0.100000,-0.100000)"
fill="#000000" stroke="none">
<path d="M1000 2244 c-264 -34 -464 -130 -654 -313 -171 -166 -277 -354 -322
-571 -24 -117 -24 -353 0 -470 45 -217 151 -405 322 -571 227 -220 460 -313
779 -313 209 0 342 30 508 115 184 93 364 266 474 454 171 293 187 707 39
1020 -59 126 -114 204 -215 309 -163 167 -341 270 -549 316 -85 19 -309 33
-382 24z m259 -124 c320 -41 618 -255 768 -555 80 -159 116 -366 94 -550 -26
-228 -110 -409 -268 -576 -400 -424 -1056 -424 -1456 0 -170 180 -259 386
-273 630 -17 300 93 575 315 784 227 214 508 306 820 267z"/>
<path d="M626 1821 c-16 -25 -29 -151 -20 -192 8 -41 7 -48 -23 -93 -51 -74
-66 -142 -61 -260 4 -83 10 -112 33 -163 52 -116 160 -188 331 -218 l94 -17
-43 -22 c-24 -12 -54 -39 -69 -62 -20 -29 -38 -44 -67 -53 -69 -20 -111 -2
-207 90 -66 63 -89 79 -113 79 -48 0 -47 -19 6 -73 27 -29 66 -78 87 -110 50
-79 116 -111 212 -105 l64 4 0 -94 0 -95 -35 -33 c-44 -41 -44 -54 0 -54 46 0
101 23 114 48 6 12 11 76 11 149 0 127 10 171 38 181 9 3 12 -35 12 -168 0
-152 -2 -175 -20 -210 l-20 -40 21 0 c39 0 87 31 106 68 15 30 19 67 21 205
l4 167 28 0 29 0 3 -179 c3 -164 5 -182 24 -208 19 -26 98 -62 110 -50 3 3 -4
22 -15 43 -19 35 -21 56 -21 206 0 93 4 168 8 168 5 0 17 -6 28 -14 17 -13 19
-31 24 -163 3 -81 8 -153 12 -159 21 -32 148 -61 148 -34 0 5 -16 24 -35 42
l-34 33 -7 160 c-4 94 -12 173 -20 192 -8 20 -31 44 -57 61 l-45 28 89 17
c111 21 177 54 245 122 69 68 98 156 98 290 0 101 -17 165 -65 240 -28 44 -31
58 -33 139 -2 50 -6 104 -11 120 -8 28 -9 28 -59 23 -29 -4 -86 -24 -132 -47
-78 -38 -84 -39 -134 -30 -70 13 -245 13 -329 -1 -66 -11 -68 -11 -124 21 -80
45 -188 73 -201 51z"/>
</g>
</svg>
