<?xml version="1.0" standalone="no"?>
<!DOCTYPE svg PUBLIC "-//W3C//DTD SVG 20010904//EN"
 "http://www.w3.org/TR/2001/REC-SVG-20010904/DTD/svg10.dtd">
<svg version="1.0" xmlns="http://www.w3.org/2000/svg"
 width="211.000000pt" height="239.000000pt" viewBox="0 0 211.000000 239.000000"
 preserveAspectRatio="xMidYMid meet">

<g transform="translate(0.000000,239.000000) scale(0.100000,-0.100000)"
fill="#000000" stroke="none">
<path d="M10 2367 c0 -12 16 -195 35 -407 19 -212 59 -671 89 -1020 31 -349
59 -650 63 -669 l8 -34 425 -118 424 -118 423 118 c233 65 426 121 430 124 6
6 192 2053 193 2120 l0 27 -1045 0 -1045 0 0 -23z m1696 -504 c-4 -49 -9 -107
-13 -130 l-5 -43 -500 0 -501 0 7 -112 c4 -62 10 -123 13 -135 l5 -23 473 0
c261 0 476 -3 478 -7 4 -10 -67 -800 -73 -806 -8 -8 -519 -147 -538 -147 -9 0
-134 33 -277 73 l-260 72 -11 120 c-6 66 -15 160 -19 208 l-7 88 134 -3 133
-3 8 -100 c5 -55 9 -101 10 -102 1 -1 67 -20 146 -41 l144 -40 144 39 c80 21
146 39 147 39 2 0 9 69 15 153 7 83 15 160 17 169 5 17 -23 18 -453 20 l-458
3 -32 355 c-17 195 -32 374 -32 398 l-1 42 656 0 656 0 -6 -87z"/>
</g>
</svg>
