<?xml version="1.0" standalone="no"?>
<!DOCTYPE svg PUBLIC "-//W3C//DTD SVG 20010904//EN"
 "http://www.w3.org/TR/2001/REC-SVG-20010904/DTD/svg10.dtd">
<svg version="1.0" xmlns="http://www.w3.org/2000/svg"
 width="296.000000pt" height="171.000000pt" viewBox="0 0 296.000000 171.000000"
 preserveAspectRatio="xMidYMid meet">

<g transform="translate(0.000000,171.000000) scale(0.100000,-0.100000)"
fill="#000000" stroke="none">
<path d="M799 1544 l-24 -26 -3 -636 c-2 -467 1 -644 9 -665 24 -58 10 -57
699 -57 689 0 675 -1 699 57 8 21 11 198 9 665 l-3 636 -24 26 -24 26 -657 0
-657 0 -24 -26z m1316 -674 l0 -635 -635 0 -635 0 -3 625 c-1 344 0 631 3 638
3 10 136 12 637 10 l633 -3 0 -635z"/>
<path d="M1410 697 c0 -214 -2 -235 -18 -250 -29 -27 -77 -21 -116 13 l-34 30
-46 -27 c-25 -16 -46 -34 -46 -41 0 -22 85 -99 124 -112 54 -18 159 -9 193 16
39 29 63 65 73 110 5 21 10 141 10 267 l0 227 -70 0 -70 0 0 -233z"/>
<path d="M1727 907 c-56 -34 -77 -71 -77 -140 0 -96 40 -145 160 -199 77 -35
110 -63 110 -94 0 -33 -37 -64 -78 -64 -43 0 -70 14 -103 53 l-26 31 -47 -30
c-25 -16 -46 -35 -46 -42 0 -24 84 -97 126 -110 159 -47 304 30 304 162 0 95
-41 144 -170 203 -88 40 -110 58 -110 89 0 55 80 74 124 30 l24 -23 46 28 c25
16 46 33 46 37 0 14 -64 70 -93 81 -52 20 -148 13 -190 -12z"/>
</g>
</svg>
